PathFileType	4	(X/Y/Z)	D:\Long Term Storage\D'Arcy Smith\Coord19.trc
DataRate	CameraRate	NumFrames	NumMarkers	Units	OrigDataRate	OrigDataStartFrame	OrigNumFrames
120.00	120.00	      150	4	mm	120.00	4291	      4903
Frame#	Time	M1			M2			M3			M4			
		X1	Y1	Z1	X2	Y2	Z2	X3	Y3	Z3	X4	Y4	Z4	

4291	35.750	629.82703	392.68973	523.05780	904.19244	378.93378	516.46747							
4292	35.758	630.30194	385.68213	510.80197	905.16370	376.59671	513.45447							
4293	35.767	630.69897	378.94443	497.15900	906.15680	373.45532	509.78705							
4294	35.775	630.92102	372.37064	482.74600	907.19519	370.14719	505.12170							
4295	35.783	631.07684	366.14691	467.25269	908.60736	366.17346	499.81012							
4296	35.792	631.15637	360.34445	449.59351	909.60669	362.53961	494.22372							
4297	35.800	631.16003	355.14066	432.33987	911.15546	358.45703	487.74789							
4298	35.808	630.93341	350.39923	414.40753	912.69623	354.12106	480.78024							
4299	35.817	630.44293	346.32925	395.09940	914.40961	349.76184	472.92499							
4300	35.825	630.01727	343.50763	376.11603	916.31921	345.31479	464.26178							
4301	35.833	629.52557	341.30096	354.12939	918.41077	340.99689	455.28687							
4302	35.842	628.88550	340.37552	333.27408	920.54608	336.64740	445.49814							
4303	35.850	628.24213	340.64081	311.68988	922.80481	332.50510	434.99396							
4304	35.858	627.34967	342.00009	289.46149	925.22900	328.55887	423.81848							
4305	35.867	626.60236	344.71457	266.95789	927.64294	324.96024	411.83960							
4306	35.875	625.67249	348.79623	244.28859	930.26099	321.31424	398.64664							
4307	35.883	624.54694	354.11887	221.56496	932.96924	318.31500	385.31104							
4308	35.892	623.64172	360.86981	198.87950	935.64478	315.47507	371.50443							
4309	35.900	622.43304	368.86050	176.68542	938.45685	313.20517	357.02121							
4310	35.908	621.53729	378.87637	154.55421	941.30432	311.34891	341.97150							
4311	35.917	620.29144	389.42041	133.19557	944.32355	309.96042	326.45807							
4312	35.925	618.92957	401.12469	112.67290	947.41937	309.02234	310.88260							
4313	35.933	617.49957	414.30646	92.98158	950.29016	308.89438	295.40326							
4314	35.942	615.83881	427.84872	74.79753	953.63757	309.26614	278.75970							
4315	35.950	614.32904	441.92514	58.09647	956.88037	310.29071	262.13480							
4316	35.958	612.87061	456.14914	42.97880	960.28711	311.72665	245.04646							
4317	35.967	611.49847	470.19534	29.70960	963.76202	314.13696	228.40233							
4318	35.975	610.47125	483.87674	18.07655	967.17987	317.40955	211.85448							
4319	35.983	609.57208	497.12650	8.14778	970.48914	321.23065	195.72693							
4320	35.992	608.89783	508.30420	0.59065	974.05219	325.65445	179.80006							
4321	36.000	608.49377	518.84784	-5.66682	977.48260	330.80826	164.29218							
4322	36.008	608.55280	527.06598	-9.68964	980.51917	336.41537	149.54524							
4323	36.017	608.19061	533.90558	-12.39305	983.56793	342.57883	135.34047							
4324	36.025	608.89935	539.33453	-13.89972	986.33130	348.84348	121.41669							
4325	36.033	609.72620	543.25995	-14.31128	989.06378	355.38480	108.91462							
4326	36.042	610.73022	545.65869	-13.92879	991.61975	362.22852	97.07410							
4327	36.050	611.20538	546.56982	-12.65365	993.96881	369.06903	86.22903							
4328	36.058	612.84625	546.90332	-11.02250	996.04633	375.76791	76.23278							
4329	36.067	614.14819	546.10504	-9.03040	998.00427	382.34634	67.13911							
4330	36.075	615.81506	544.36401	-6.67352	999.71307	388.58365	59.21049							
4331	36.083	617.56396	541.78314	-4.15732	1001.18073	394.50620	52.23686							
4332	36.092	619.00793	538.70660	-1.20782	1002.38885	399.88702	46.12369							
4333	36.100	620.10632	534.59802	1.86237	1003.37555	404.66293	41.01754							
4334	36.108	621.84863	530.12256	5.13656	1004.03479	408.91507	36.79823							
4335	36.117	623.65533	525.00269	8.48774	1004.41669	412.37973	33.39437							
4336	36.125	625.51556	519.46381	12.12308	1004.72113	415.46765	31.74316							
4337	36.133	627.71521	513.55505	15.97242	1004.70911	417.51041	29.03501							
4338	36.142	629.75500	506.91348	20.02482	1004.42114	418.77069	28.25359							
4339	36.150	631.79156	499.76505	24.33004	1003.92664	419.47177	28.22422							
4340	36.158	633.78418	492.30414	29.08898	1003.24573	419.48370	28.93789							
4341	36.167	635.82581	484.31244	34.07687	1002.30634	418.88440	30.23958							
4342	36.175	637.89081	475.93887	39.59651	1001.18536	417.61252	32.13503							
4343	36.183	640.11987	467.12149	45.50334	999.83075	415.65494	34.73396							
4344	36.192	642.22150	458.04495	51.98387	998.15179	413.35895	37.61672							
4345	36.200	644.43140	448.49539	59.04479	996.36786	410.43091	41.37682							
4346	36.208	646.66675	438.75201	66.72668	994.25714	406.93045	45.68399							
4347	36.217	648.76233	428.69055	75.11931	992.14520	403.20886	50.19135							
4348	36.225	651.16211	418.80927	83.28374	989.81189	399.01816	55.22859							
4349	36.233	653.34589	407.64114	94.10935	987.17944	394.57495	60.79709							
4350	36.242	655.36646	397.34586	104.87340	984.52594	389.86169	66.75758							
4351	36.250	656.87079	386.53271	116.60278	981.77368	385.07916	73.08511							
4352	36.258	659.19250	376.82776	129.00621	978.84985	379.88727	80.02155							
4353	36.267	660.04077	365.45703	145.25053	975.70746	374.84967	87.09396							
4354	36.275	662.10278	356.50546	158.62366	972.57208	369.53195	94.74815							
4355	36.283	663.59167	347.38312	175.25958	969.36407	364.26074	102.75206							
4356	36.292	664.78351	338.92963	193.15457	966.09540	359.07913	111.09760							
4357	36.300	665.60358	331.25861	212.41968	962.81769	353.97266	119.80265							
4358	36.308	666.01630	324.63525	232.86154	959.56018	348.80212	129.43619							
4359	36.317	666.10376	319.08301	254.57887	956.21997	343.68192	139.13246							
4360	36.325	665.82416	314.63339	277.03796	953.00281	338.83160	149.24146							
4361	36.333	665.15552	311.53189	300.20285	949.80524	334.18787	159.56917							
4362	36.342	664.18127	309.80450	324.11447	946.72375	329.87122	170.53748							
4363	36.350	662.95679	309.68420	348.14487	943.71008	325.94501	181.58881							
4364	36.358	661.50873	311.00165	372.33997	940.85419	322.14310	193.25938							
4365	36.367	659.41541	313.60959	396.14514	938.08685	318.91342	205.04456							
4366	36.375	657.01196	317.62497	419.49500	935.50439	316.00516	217.25026							
4367	36.383	654.33917	323.21362	442.41254	933.11255	313.50919	229.68623							
4368	36.392	651.35834	330.47522	463.91046	930.83130	311.47537	242.22588							
4369	36.400	648.01715	338.76477	486.72983	928.84894	309.89215	254.65424							
4370	36.408	644.71704	348.55786	506.32010	927.00293	308.98459	267.52908							
4371	36.417	641.50519	359.00830	524.85870	925.24414	308.59512	280.31149							
4372	36.425	637.57385	370.93140	542.00531	923.69360	308.58868	292.98465							
4373	36.433	633.97906	383.14490	557.43951	922.21252	309.00388	305.59189							
4374	36.442	630.25537	395.80084	571.85602	920.96130	309.97214	318.18323							
4375	36.450	626.60706	408.76300	584.09271	919.70782	311.31848	330.07016							
4376	36.458	623.11273	421.73492	594.91455	918.67010	312.85394	341.73486							
4377	36.467	619.61755	434.29028	604.27356	917.54645	314.81055	352.84674							
4378	36.475	616.19928	446.25037	612.00378	916.41211	316.86603	363.80652							
4379	36.483	613.14807	457.47552	618.60693	915.31561	319.20853	374.20233							
4380	36.492	610.27258	467.49405	623.50964	914.38690	321.87045	384.17401							
4381	36.500	607.76837	476.13467	627.27954	913.08923	324.64429	393.85562							
4382	36.508	604.86298	483.69531	631.21649	912.03662	327.46802	402.72314							
4383	36.517	602.78534	489.46313	633.18182	910.75732	330.25372	410.77701							
4384	36.525	600.97388	493.69278	634.41132	909.61456	332.97589	418.47198							
4385	36.533	599.61096	496.30045	634.84210	908.12018	335.65076	425.05450							
4386	36.542	598.71509	496.86740	634.29169	906.83258	338.21140	431.10544							
4387	36.550	597.78320	495.61807	632.57684	905.11188	340.40930	436.43768							
4388	36.558	597.93518	493.28574	631.58795	903.42871	342.88000	440.61105							
4389	36.567	598.16260	489.47165	628.89050	901.54816	344.93329	444.73764							
4390	36.575	598.30902	484.34866	625.08990	899.59503	346.71341	447.57617							
4391	36.583	599.82635	478.76480	621.40509	897.43463	348.09268	450.31158							
4392	36.592	600.37555	471.91470	616.20850	895.27856	349.69513	451.42160							
4393	36.600	601.71661	464.58145	611.05206	892.91730	350.72131	452.22397							
4394	36.608	602.87402	456.69742	604.86829	890.49237	351.48038	452.44104							
4395	36.617	604.12775	448.32031	597.61792	887.98773	351.69077	452.69421							
4396	36.625	605.27765	439.60196	589.44879	885.49152	352.13956	450.94852							
4397	36.633	606.60791	430.86801	580.00269	882.91913	352.06540	449.15302							
4398	36.642	607.68982	422.12750	569.83203	880.41193	351.78574	446.64951							
4399	36.650	609.02740	413.15897	558.12750	877.75403	351.25906	443.68277							
4400	36.658	610.45453	404.21198	545.95648	875.19824	350.38318	440.19516							
4401	36.667	611.71954	395.35770	532.24542	872.86890	349.29395	436.24844							
4402	36.675	613.12860	386.59641	517.74182	870.44562	348.00400	431.97464							
4403	36.683	614.64117	378.16809	501.83115	868.19989	346.60263	427.33182							
4404	36.692	616.13123	370.11368	484.50528	866.36725	344.89374	422.14276							
4405	36.700	617.66711	362.53531	465.99213	864.73889	342.87946	416.29630							
4406	36.708	619.17175	355.63660	444.63821	863.02789	341.31509	410.56259							
4407	36.717	620.48090	349.48624	423.75006	861.84058	339.35684	404.43661							
4408	36.725	621.81818	344.48138	401.33990	860.96222	337.18619	397.93979							
4409	36.733	622.93402	340.47284	378.32306	860.37762	335.17697	390.98721							
4410	36.742	624.19928	337.79678	354.37149	860.28064	333.14600	384.09714							
4411	36.750	625.24622	336.70358	330.35580	860.29529	331.14056	377.03470							
4412	36.758	625.91357	337.05847	305.04355	860.96985	329.32751	369.92294							
4413	36.767	626.53473	338.94861	279.82047	861.97821	327.17001	361.55255							
4414	36.775	627.11261	342.35550	254.58165	863.18591	325.43011	354.32019							
4415	36.783	627.49310	347.56265	229.62410	865.07471	323.65384	346.89490							
4416	36.792	627.62579	354.31888	204.97697	867.24677	322.09293	339.16013							
4417	36.800	627.85352	362.81311	180.87035	869.93353	320.72604	331.48169							
4418	36.808	627.54761	372.48956	157.91180	872.91943	319.57690	324.22079							
4419	36.817	627.75006	384.10376	135.49110	876.47375	318.12854	316.20102							
4420	36.825	627.41187	396.12448	114.71992	880.67157	316.75375	307.89261							
4421	36.833	626.95038	409.54755	95.40542	884.89240	316.08981	299.94586							
4422	36.842	626.49286	422.80145	78.24165	889.70740	315.26334	291.68936							
4423	36.850	625.68195	435.97137	62.93707	895.03571	314.52252	283.40228							
4424	36.858	625.81647	449.50739	49.60282	900.88013	313.96149	275.16782							
4425	36.867	625.69690	462.25470	38.24198	907.31421	313.63162	266.59665							
4426	36.875	625.59412	474.49203	29.04735	914.53772	313.42633	257.73822							
4427	36.883	625.33160	484.31604	22.49396	922.25775	313.55923	249.08319							
4428	36.892	626.22791	493.53094	17.49184	930.70996	313.96951	240.24174							
4429	36.900	626.41742	500.64810	14.33908	939.93457	314.65106	231.05371							
4430	36.908	627.76373	506.73001	12.55183	949.54327	315.81772	222.32155							
4431	36.917	629.16937	511.60852	11.63489	959.91803	317.44495	213.16109							
4432	36.925	630.05804	513.70892	12.60361	970.92896	319.41684	204.30736							
4433	36.933	632.27344	515.48804	14.10077	982.34497	321.83392	195.62231							
4434	36.942	634.32410	515.70612	16.31071	994.05505	324.70251	186.85048							
4435	36.950	635.85358	514.64410	19.35823	1006.14893	328.17145	178.40451							
4436	36.958	638.53259	512.90674	22.74002	1018.55341	331.79395	170.35818							
4437	36.967	641.07874	510.53979	26.21964	1030.93225	335.95349	161.51677							
4438	36.975	643.57941	506.30341	30.70181	1043.59863	340.67230	154.01270							
4439	36.983	645.54358	501.48022	35.40939	1055.89795	345.89490	146.77310							
4440	36.992	648.74823	496.39362	40.27063	1068.01782	351.34775	140.09352							
